<svg width="600" height="600" viewBox="0 0 600 600" fill="none" xmlns="http://www.w3.org/2000/svg">
<path d="M360.757 298.924C360.757 312.969 358.095 324.918 352.773 334.771C347.492 344.623 340.283 352.149 331.147 357.348C322.052 362.504 311.826 365.083 300.468 365.083C289.027 365.083 278.758 362.484 269.664 357.285C260.569 352.086 253.382 344.56 248.101 334.708C242.82 324.855 240.18 312.927 240.18 298.924C240.18 284.878 242.82 272.93 248.101 263.077C253.382 253.224 260.569 245.72 269.664 240.563C278.758 235.364 289.027 232.764 300.468 232.764C311.826 232.764 322.052 235.364 331.147 240.563C340.283 245.72 347.492 253.224 352.773 263.077C358.095 272.93 360.757 284.878 360.757 298.924ZM333.158 298.924C333.158 289.826 331.797 282.153 329.073 275.906C326.39 269.659 322.597 264.922 317.693 261.693C312.79 258.465 307.048 256.851 300.468 256.851C293.888 256.851 288.146 258.465 283.243 261.693C278.339 264.922 274.526 269.659 271.801 275.906C269.119 282.153 267.778 289.826 267.778 298.924C267.778 308.021 269.119 315.694 271.801 321.941C274.526 328.188 278.339 332.926 283.243 336.154C288.146 339.382 293.888 340.997 300.468 340.997C307.048 340.997 312.79 339.382 317.693 336.154C322.597 332.926 326.39 328.188 329.073 321.941C331.797 315.694 333.158 308.021 333.158 298.924Z" fill="#94E2D5"/>
<path d="M300.057 25.9001L62.1133 160.124V434.674L300.057 575L538 440.776V166.226L300.057 25.9001Z" stroke="#94E2D5" stroke-width="25" stroke-linecap="round" stroke-linejoin="round"/>
</svg>
