<svg width="73" height="30" viewBox="0 0 73 30" fill="none" xmlns="http://www.w3.org/2000/svg">
<rect width="72.6197" height="30" fill="#74AA9C"/>
<path d="M35.4163 15.3636C35.4163 16.1402 35.2742 16.8078 34.9901 17.3665C34.7061 17.9228 34.3166 18.3513 33.8218 18.652C33.3294 18.9503 32.7695 19.0994 32.1421 19.0994C31.5124 19.0994 30.9501 18.9503 30.4553 18.652C29.9629 18.3513 29.5747 17.9216 29.2906 17.3629C29.0065 16.8042 28.8644 16.1378 28.8644 15.3636C28.8644 14.5871 29.0065 13.9207 29.2906 13.3643C29.5747 12.8056 29.9629 12.3771 30.4553 12.0788C30.9501 11.7782 31.5124 11.6278 32.1421 11.6278C32.7695 11.6278 33.3294 11.7782 33.8218 12.0788C34.3166 12.3771 34.7061 12.8056 34.9901 13.3643C35.2742 13.9207 35.4163 14.5871 35.4163 15.3636ZM34.3296 15.3636C34.3296 14.7718 34.2338 14.2734 34.042 13.8686C33.8526 13.4614 33.5922 13.1536 33.2607 12.9453C32.9317 12.7346 32.5588 12.6293 32.1421 12.6293C31.7231 12.6293 31.349 12.7346 31.02 12.9453C30.6909 13.1536 30.4305 13.4614 30.2387 13.8686C30.0493 14.2734 29.9546 14.7718 29.9546 15.3636C29.9546 15.9555 30.0493 16.455 30.2387 16.8622C30.4305 17.267 30.6909 17.5748 31.02 17.7855C31.349 17.9938 31.7231 18.098 32.1421 18.098C32.5588 18.098 32.9317 17.9938 33.2607 17.7855C33.5922 17.5748 33.8526 17.267 34.042 16.8622C34.2338 16.455 34.3296 15.9555 34.3296 15.3636ZM36.6991 21.0455V13.5455H37.7361V14.4297H37.8248C37.8864 14.3161 37.9752 14.1847 38.0912 14.0355C38.2072 13.8864 38.3682 13.7562 38.5741 13.6449C38.7801 13.5312 39.0523 13.4744 39.3909 13.4744C39.8312 13.4744 40.2242 13.5857 40.5699 13.8082C40.9155 14.0308 41.1866 14.3516 41.3831 14.7706C41.5819 15.1896 41.6814 15.6939 41.6814 16.2834C41.6814 16.8729 41.5831 17.3783 41.3866 17.7997C41.1901 18.2187 40.9202 18.5419 40.577 18.7692C40.2337 18.9941 39.8419 19.1065 39.4015 19.1065C39.0701 19.1065 38.799 19.0509 38.5883 18.9396C38.38 18.8284 38.2166 18.6982 38.0983 18.549C37.9799 18.3999 37.8888 18.2673 37.8248 18.1513H37.7609V21.0455H36.6991ZM37.7396 16.2727C37.7396 16.6562 37.7952 16.9924 37.9065 17.2812C38.0178 17.5701 38.1788 17.7962 38.3895 17.9595C38.6002 18.1205 38.8582 18.201 39.1636 18.201C39.4809 18.201 39.746 18.117 39.9591 17.9489C40.1721 17.7784 40.3331 17.5476 40.442 17.2564C40.5533 16.9652 40.6089 16.6373 40.6089 16.2727C40.6089 15.9129 40.5545 15.5897 40.4456 15.3033C40.339 15.0168 40.1781 14.7907 39.9626 14.625C39.7496 14.4593 39.4832 14.3764 39.1636 14.3764C38.8559 14.3764 38.5954 14.4557 38.3824 14.6143C38.1717 14.773 38.0119 14.9943 37.903 15.2784C37.7941 15.5625 37.7396 15.8939 37.7396 16.2727ZM45.2219 19.1101C44.6845 19.1101 44.2216 18.9953 43.8334 18.7656C43.4475 18.5336 43.1492 18.2081 42.9385 17.7891C42.7301 17.3677 42.626 16.8741 42.626 16.3082C42.626 15.7495 42.7301 15.2571 42.9385 14.831C43.1492 14.4048 43.4427 14.0722 43.8192 13.8331C44.1979 13.594 44.6407 13.4744 45.1473 13.4744C45.455 13.4744 45.7533 13.5253 46.0422 13.6271C46.331 13.7289 46.5902 13.8887 46.8199 14.1065C47.0495 14.3243 47.2306 14.6072 47.3632 14.9553C47.4958 15.3009 47.5621 15.7211 47.5621 16.2159V16.5923H43.2261V15.7969H46.5216C46.5216 15.5175 46.4648 15.2701 46.3511 15.0547C46.2375 14.8369 46.0777 14.6652 45.8717 14.5398C45.6681 14.4143 45.429 14.3516 45.1544 14.3516C44.8561 14.3516 44.5957 14.425 44.3731 14.5717C44.153 14.7161 43.9825 14.9055 43.8618 15.1399C43.7434 15.3719 43.6842 15.6241 43.6842 15.8963V16.5178C43.6842 16.8823 43.7481 17.1925 43.876 17.4482C44.0062 17.7038 44.1873 17.8991 44.4193 18.0341C44.6513 18.1667 44.9224 18.233 45.2325 18.233C45.4337 18.233 45.6172 18.2045 45.7829 18.1477C45.9487 18.0885 46.0919 18.0009 46.2126 17.8849C46.3334 17.7689 46.4257 17.6257 46.4896 17.4553L47.4946 17.6364C47.4141 17.9323 47.2697 18.1915 47.0613 18.4141C46.8554 18.6342 46.5961 18.8059 46.2836 18.929C45.9735 19.0497 45.6196 19.1101 45.2219 19.1101ZM49.8019 15.7614V19H48.7401V13.5455H49.7593V14.4332H49.8268C49.9523 14.1444 50.1488 13.9124 50.4163 13.7372C50.6862 13.562 51.0259 13.4744 51.4355 13.4744C51.8071 13.4744 52.1327 13.5526 52.412 13.7088C52.6914 13.8627 52.908 14.0923 53.0619 14.3977C53.2158 14.7031 53.2927 15.0807 53.2927 15.5305V19H52.2309V15.6584C52.2309 15.263 52.1279 14.9541 51.922 14.7315C51.716 14.5066 51.4331 14.3942 51.0732 14.3942C50.827 14.3942 50.608 14.4474 50.4163 14.554C50.2269 14.6605 50.0766 14.8168 49.9653 15.0227C49.8564 15.2263 49.8019 15.4725 49.8019 15.7614ZM55.4163 19H54.2515L56.8687 11.7273H58.1365L60.7536 19H59.5889L57.5328 13.0483H57.4759L55.4163 19ZM55.6116 16.152H59.39V17.0753H55.6116V16.152ZM62.9012 11.7273V19H61.8039V11.7273H62.9012Z" fill="white"/>
<path d="M21.143 14.3205C21.2543 13.9905 21.311 13.6451 21.3111 13.2974C21.311 12.7221 21.1557 12.1571 20.8611 11.6606C20.2691 10.6438 19.1708 10.016 17.9822 10.016C17.7481 10.0161 17.5146 10.0404 17.2856 10.0888C16.9776 9.74648 16.5996 9.47243 16.1764 9.28474C15.7533 9.09706 15.2946 9.00001 14.8307 9H14.8098L14.802 9.00005C13.3624 9.00005 12.0858 9.91661 11.6432 11.2678C11.1851 11.3604 10.7524 11.5485 10.3739 11.8194C9.99543 12.0904 9.68 12.438 9.44871 12.839C9.15497 13.3385 9.00018 13.9056 9 14.4831C9.00011 15.2947 9.30544 16.0774 9.85685 16.6795C9.74554 17.0095 9.68878 17.3549 9.68873 17.7026C9.68878 18.2779 9.8441 18.8429 10.1387 19.3394C10.4891 19.9413 11.0241 20.4178 11.6667 20.7003C12.3093 20.9828 13.0262 21.0566 13.714 20.9111C14.022 21.2535 14.4001 21.5275 14.8233 21.7152C15.2465 21.9029 15.7052 22 16.1691 22H16.19L16.1984 22C17.6388 22 18.9151 21.0833 19.3576 19.7309C19.8157 19.6383 20.2484 19.4502 20.6269 19.1792C21.0054 18.9083 21.3208 18.5607 21.5522 18.1597C21.8456 17.6606 22.0001 17.094 22 16.517C21.9999 15.7055 21.6946 14.9228 21.1432 14.3206L21.143 14.3205ZM16.1908 21.1501H16.1874C15.611 21.1499 15.053 20.9504 14.6103 20.5863C14.6366 20.5723 14.6625 20.5578 14.6882 20.5427L17.3115 19.0476C17.377 19.0108 17.4314 18.9576 17.4693 18.8934C17.5072 18.8291 17.5271 18.7561 17.5272 18.6818V15.0301L18.636 15.6618C18.6418 15.6647 18.6468 15.6689 18.6506 15.6742C18.6543 15.6794 18.6567 15.6855 18.6576 15.6918V18.7139C18.656 20.0575 17.5526 21.1474 16.1908 21.1501ZM10.8859 18.9146C10.6692 18.5448 10.5551 18.1254 10.5549 17.6983C10.5549 17.559 10.5672 17.4194 10.5912 17.2821C10.6108 17.2937 10.6448 17.3142 10.6692 17.328L13.2926 18.8232C13.358 18.8608 13.4323 18.8807 13.5081 18.8807C13.5838 18.8807 13.6582 18.8608 13.7236 18.8231L16.9264 16.9983V18.2618L16.9264 18.264C16.9264 18.2701 16.925 18.2761 16.9223 18.2815C16.9195 18.287 16.9155 18.2917 16.9106 18.2954L14.2586 19.8062C13.8834 20.0192 13.458 20.1314 13.0251 20.1316C12.5917 20.1315 12.1659 20.019 11.7904 19.8054C11.415 19.5918 11.1031 19.2845 10.8859 18.9144V18.9146ZM10.1958 13.2638C10.4839 12.77 10.9388 12.3919 11.481 12.1957C11.481 12.218 11.4797 12.2575 11.4797 12.2849V15.2752L11.4797 15.2776C11.4797 15.3519 11.4996 15.4248 11.5374 15.489C11.5752 15.5532 11.6296 15.6064 11.695 15.6431L14.8978 17.4676L13.789 18.0993C13.7835 18.1028 13.7773 18.105 13.7708 18.1056C13.7642 18.1062 13.7576 18.1052 13.7516 18.1027L11.0994 16.5906C10.7245 16.3763 10.4132 16.0685 10.1968 15.6981C9.9804 15.3277 9.86647 14.9077 9.86642 14.4802C9.86658 14.0533 9.98019 13.634 10.1959 13.2639L10.1958 13.2638ZM19.3059 15.3556L16.103 13.5309L17.2119 12.8994C17.2173 12.8958 17.2236 12.8937 17.2301 12.8931C17.2366 12.8925 17.2432 12.8935 17.2493 12.896L19.9014 14.4068C20.2767 14.6208 20.5883 14.9284 20.8049 15.2988C21.0216 15.6691 21.1357 16.0892 21.1358 16.5168C21.1358 17.5375 20.4903 18.4508 19.5198 18.8033V15.7236C19.5199 15.7225 19.5199 15.7213 19.5199 15.7201C19.5199 15.6462 19.5001 15.5735 19.4625 15.5095C19.4249 15.4455 19.3709 15.3924 19.3059 15.3556ZM20.4095 13.7166C20.3837 13.7011 20.3577 13.6858 20.3316 13.6708L17.7082 12.1756C17.6428 12.138 17.5685 12.1182 17.4928 12.1182C17.4171 12.1182 17.3427 12.138 17.2773 12.1756L14.0744 14.0003V12.7369L14.0744 12.7347C14.0744 12.7223 14.0803 12.7107 14.0903 12.7033L16.7423 11.1938C17.1174 10.9804 17.5428 10.8681 17.9757 10.8681C19.3393 10.8681 20.4451 11.9591 20.4451 13.3045C20.445 13.4426 20.4331 13.5804 20.4095 13.7165V13.7166ZM13.4716 15.9686L12.3625 15.3369C12.3567 15.334 12.3517 15.3298 12.3479 15.3245C12.3442 15.3193 12.3418 15.3132 12.341 15.3069V12.2848C12.3416 10.9401 13.4473 9.84993 14.8103 9.84993C15.3876 9.85005 15.9465 10.0496 16.3903 10.4139C16.3703 10.4247 16.3355 10.4436 16.3124 10.4575L13.689 11.9526C13.6236 11.9893 13.5691 12.0425 13.5313 12.1068C13.4934 12.171 13.4734 12.244 13.4734 12.3183V12.3207L13.4716 15.9686ZM14.0739 14.6872L15.5004 13.8743L16.9269 14.6867V16.312L15.5004 17.1245L14.0739 16.312V14.6872Z" fill="white"/>
</svg>
