<svg width="101" height="28" viewBox="0 0 101 28" fill="none" xmlns="http://www.w3.org/2000/svg">
<g clip-path="url(#clip0_27_2)">
<path d="M100.75 0H0V28H100.75V0Z" fill="#74AA9C"/>
<path d="M48.212 13.8636C48.212 14.6567 48.0617 15.3314 47.761 15.8878C47.4627 16.4441 47.0555 16.8691 46.5394 17.1626C46.0257 17.4538 45.448 17.5994 44.8065 17.5994C44.1602 17.5994 43.5801 17.4527 43.0664 17.1591C42.5527 16.8655 42.1467 16.4406 41.8484 15.8842C41.5501 15.3279 41.4009 14.6544 41.4009 13.8636C41.4009 13.0705 41.5501 12.3958 41.8484 11.8395C42.1467 11.2831 42.5527 10.8594 43.0664 10.5682C43.5801 10.2746 44.1602 10.1278 44.8065 10.1278C45.448 10.1278 46.0257 10.2746 46.5394 10.5682C47.0555 10.8594 47.4627 11.2831 47.761 11.8395C48.0617 12.3958 48.212 13.0705 48.212 13.8636ZM46.6531 13.8636C46.6531 13.3499 46.5761 12.9167 46.4222 12.5639C46.2707 12.2112 46.0565 11.9437 45.7795 11.7614C45.5025 11.5791 45.1782 11.4879 44.8065 11.4879C44.4348 11.4879 44.1104 11.5791 43.8335 11.7614C43.5565 11.9437 43.341 12.2112 43.1872 12.5639C43.0356 12.9167 42.9599 13.3499 42.9599 13.8636C42.9599 14.3774 43.0356 14.8106 43.1872 15.1634C43.341 15.5161 43.5565 15.7836 43.8335 15.9659C44.1104 16.1482 44.4348 16.2393 44.8065 16.2393C45.1782 16.2393 45.5025 16.1482 45.7795 15.9659C46.0565 15.7836 46.2707 15.5161 46.4222 15.1634C46.5761 14.8106 46.6531 14.3774 46.6531 13.8636ZM49.351 17.5V10.2273H52.2204C52.772 10.2273 53.2419 10.3326 53.6302 10.5433C54.0184 10.7517 54.3143 11.0417 54.5179 11.4134C54.7239 11.7827 54.8269 12.2088 54.8269 12.6918C54.8269 13.1747 54.7227 13.6009 54.5144 13.9702C54.3061 14.3395 54.0042 14.6271 53.6088 14.8331C53.2159 15.0391 52.74 15.142 52.1813 15.142H50.3525V13.9098H51.9327C52.2286 13.9098 52.4725 13.8589 52.6642 13.7571C52.8584 13.6529 53.0028 13.5097 53.0975 13.3274C53.1945 13.1428 53.2431 12.9309 53.2431 12.6918C53.2431 12.4503 53.1945 12.2396 53.0975 12.0597C53.0028 11.8774 52.8584 11.7365 52.6642 11.6371C52.4701 11.5353 52.2239 11.4844 51.9256 11.4844H50.8887V17.5H49.351ZM55.8256 17.5V10.2273H60.7262V11.495H57.3633V13.228H60.4741V14.4957H57.3633V16.2322H60.7404V17.5H55.8256ZM68.0318 10.2273V17.5H66.7037L63.5396 12.9226H63.4863V17.5H61.9487V10.2273H63.2981L66.4373 14.8011H66.5012V10.2273H68.0318ZM70.5558 17.5H68.908L71.4187 10.2273H73.4002L75.9073 17.5H74.2596L72.4379 11.8892H72.381L70.5558 17.5ZM70.4528 14.6413H74.3448V15.8416H70.4528V14.6413ZM78.3203 10.2273V17.5H76.7827V10.2273H78.3203Z" fill="white"/>
<path d="M21.143 12.3205C21.2543 11.9905 21.311 11.6451 21.3111 11.2974C21.311 10.7221 21.1557 10.1571 20.8611 9.66064C20.2691 8.64382 19.1708 8.01605 17.9822 8.01605C17.7481 8.01605 17.5146 8.04045 17.2856 8.08884C16.9776 7.74648 16.5996 7.47243 16.1764 7.28474C15.7533 7.09706 15.2946 7.00001 14.8307 7H14.8098L14.802 7.00005C13.3624 7.00005 12.0858 7.91661 11.6432 9.26782C11.1851 9.3604 10.7524 9.54846 10.3739 9.81943C9.99543 10.0904 9.68 10.438 9.44871 10.839C9.15497 11.3385 9.00018 11.9056 9 12.4831C9.00011 13.2947 9.30544 14.0774 9.85685 14.6795C9.74554 15.0095 9.68878 15.3549 9.68873 15.7026C9.68878 16.2779 9.8441 16.8429 10.1387 17.3394C10.4891 17.9413 11.0241 18.4178 11.6667 18.7003C12.3093 18.9828 13.0262 19.0566 13.714 18.9111C14.022 19.2535 14.4001 19.5275 14.8233 19.7152C15.2465 19.9029 15.7052 20 16.1691 20H16.19L16.1984 20C17.6388 20 18.9151 19.0833 19.3576 17.7309C19.8157 17.6383 20.2484 17.4502 20.6269 17.1792C21.0054 16.9083 21.3208 16.5607 21.5522 16.1597C21.8456 15.6606 22.0001 15.094 22 14.517C21.9999 13.7055 21.6946 12.9228 21.1432 12.3206L21.143 12.3205ZM16.1908 19.1501H16.1874C15.611 19.1499 15.053 18.9504 14.6103 18.5863C14.6366 18.5723 14.6625 18.5578 14.6882 18.5427L17.3115 17.0476C17.377 17.0108 17.4314 16.9576 17.4693 16.8934C17.5072 16.8291 17.5271 16.7561 17.5272 16.6818V13.0301L18.636 13.6618C18.6418 13.6647 18.6468 13.6689 18.6506 13.6742C18.6543 13.6794 18.6567 13.6855 18.6576 13.6918V16.7139C18.656 18.0575 17.5526 19.1474 16.1908 19.1501ZM10.8859 16.9146C10.6692 16.5448 10.5551 16.1254 10.5549 15.6983C10.5549 15.559 10.5672 15.4194 10.5912 15.2821C10.6108 15.2937 10.6448 15.3142 10.6692 15.328L13.2926 16.8232C13.358 16.8608 13.4323 16.8807 13.5081 16.8807C13.5838 16.8807 13.6582 16.8608 13.7236 16.8231L16.9264 14.9983V16.2618L16.9264 16.264C16.9264 16.2701 16.925 16.2761 16.9223 16.2815C16.9195 16.287 16.9155 16.2917 16.9106 16.2954L14.2586 17.8062C13.8834 18.0192 13.458 18.1314 13.0251 18.1316C12.5917 18.1315 12.1659 18.019 11.7904 17.8054C11.415 17.5918 11.1031 17.2845 10.8859 16.9144V16.9146ZM10.1958 11.2638C10.4839 10.77 10.9388 10.3919 11.481 10.1957C11.481 10.218 11.4797 10.2575 11.4797 10.2849V13.2752L11.4797 13.2776C11.4797 13.3519 11.4996 13.4248 11.5374 13.489C11.5752 13.5532 11.6296 13.6064 11.695 13.6431L14.8978 15.4676L13.789 16.0993C13.7835 16.1028 13.7773 16.105 13.7708 16.1056C13.7642 16.1062 13.7576 16.1052 13.7516 16.1027L11.0994 14.5906C10.7245 14.3763 10.4132 14.0685 10.1968 13.6981C9.9804 13.3277 9.86647 12.9077 9.86642 12.4802C9.86658 12.0533 9.98019 11.634 10.1959 11.2639L10.1958 11.2638ZM19.3059 13.3556L16.103 11.5309L17.2119 10.8994C17.2173 10.8958 17.2236 10.8937 17.2301 10.8931C17.2366 10.8925 17.2432 10.8935 17.2493 10.896L19.9014 12.4068C20.2767 12.6208 20.5883 12.9284 20.8049 13.2988C21.0216 13.6691 21.1357 14.0892 21.1358 14.5168C21.1358 15.5375 20.4903 16.4508 19.5198 16.8033V13.7236C19.5199 13.7225 19.5199 13.7213 19.5199 13.7201C19.5199 13.6462 19.5001 13.5735 19.4625 13.5095C19.4249 13.4455 19.3709 13.3924 19.3059 13.3556ZM20.4095 11.7166C20.3837 11.7011 20.3577 11.6858 20.3316 11.6708L17.7082 10.1756C17.6428 10.138 17.5685 10.1182 17.4928 10.1182C17.4171 10.1182 17.3427 10.138 17.2773 10.1756L14.0744 12.0003V10.7369L14.0744 10.7347C14.0744 10.7223 14.0803 10.7107 14.0903 10.7033L16.7423 9.1938C17.1174 8.98042 17.5428 8.86809 17.9757 8.86807C19.3393 8.86807 20.4451 9.95914 20.4451 11.3045C20.445 11.4426 20.4331 11.5804 20.4095 11.7165V11.7166ZM13.4716 13.9686L12.3625 13.3369C12.3567 13.334 12.3517 13.3298 12.3479 13.3245C12.3442 13.3193 12.3418 13.3132 12.341 13.3069V10.2848C12.3416 8.94009 13.4473 7.84993 14.8103 7.84993C15.3876 7.85005 15.9465 8.04958 16.3903 8.4139C16.3703 8.42465 16.3355 8.44362 16.3124 8.45747L13.689 9.9526C13.6236 9.98934 13.5691 10.0425 13.5313 10.1068C13.4934 10.171 13.4734 10.244 13.4734 10.3183V10.3207L13.4716 13.9686ZM14.0739 12.6872L15.5004 11.8743L16.9269 12.6867V14.312L15.5004 15.1245L14.0739 14.312V12.6872Z" fill="white"/>
</g>
<defs>
<clipPath id="clip0_27_2">
<rect width="100.75" height="28" fill="white"/>
</clipPath>
</defs>
</svg>
